<svg width="127" height="37" viewBox="0 0 127 37" fill="none" xmlns="http://www.w3.org/2000/svg">
<path d="M119 1H120V0H119V1ZM118.293 36.7071C118.683 37.0976 119.317 37.0976 119.707 36.7071L126.071 30.3431C126.462 29.9526 126.462 29.3195 126.071 28.9289C125.681 28.5384 125.047 28.5384 124.657 28.9289L119 34.5858L113.343 28.9289C112.953 28.5384 112.319 28.5384 111.929 28.9289C111.538 29.3195 111.538 29.9526 111.929 30.3431L118.293 36.7071ZM0 2H119V0H0V2ZM118 1V36H120V1H118Z" fill="#262626"/>
</svg>
